<svg xmlns:xlink="http://www.w3.org/1999/xlink" xmlns="http://www.w3.org/2000/svg" width="108" height="30" viewBox="0 0 108 30" fill="none">
<path d="M8.5 25C8.5 25 17 20.8 17 14.5V7.15L8.5 4L0 7.15V14.5C0 20.8 8.5 25 8.5 25Z" fill="#008000"/>
<path d="M27.5984 12V3.27273H31.0415C31.7035 3.27273 32.2674 3.39915 32.7333 3.65199C33.1992 3.90199 33.5543 4.25 33.7987 4.69602C34.0458 5.1392 34.1694 5.65057 34.1694 6.23011C34.1694 6.80966 34.0444 7.32102 33.7944 7.7642C33.5444 8.20739 33.1822 8.55256 32.7077 8.79972C32.2362 9.04687 31.6651 9.17045 30.9947 9.17045H28.8001V7.69176H30.6964C31.0515 7.69176 31.3441 7.63068 31.5742 7.50852C31.8072 7.38352 31.9805 7.21165 32.0941 6.9929C32.2106 6.77131 32.2688 6.51705 32.2688 6.23011C32.2688 5.94034 32.2106 5.6875 32.0941 5.47159C31.9805 5.25284 31.8072 5.08381 31.5742 4.96449C31.3413 4.84233 31.0458 4.78125 30.6879 4.78125H29.4435V12H27.5984ZM35.8643 12H33.8871L36.8999 3.27273H39.2777L42.2862 12H40.3089L38.1229 5.26705H38.0547L35.8643 12ZM35.7408 8.5696H40.4112V10.0099H35.7408V8.5696ZM48.7134 6.09375C48.6538 5.88636 48.57 5.70312 48.462 5.54403C48.354 5.3821 48.2219 5.24574 48.0657 5.13494C47.9123 5.02131 47.7362 4.93466 47.5373 4.875C47.3413 4.81534 47.1239 4.78551 46.8853 4.78551C46.4393 4.78551 46.0472 4.89631 45.7092 5.1179C45.3739 5.33949 45.1126 5.66193 44.9251 6.08523C44.7376 6.50568 44.6438 7.01989 44.6438 7.62784C44.6438 8.2358 44.7362 8.75284 44.9208 9.17898C45.1055 9.60511 45.3668 9.9304 45.7049 10.1548C46.043 10.3764 46.4421 10.4872 46.9023 10.4872C47.32 10.4872 47.6765 10.4134 47.9719 10.2656C48.2702 10.1151 48.4975 9.90341 48.6538 9.63068C48.8129 9.35795 48.8924 9.03551 48.8924 8.66335L49.2674 8.71875H47.0174V7.32955H50.6694V8.42898C50.6694 9.19602 50.5075 9.85511 50.1836 10.4062C49.8597 10.9545 49.4137 11.3778 48.8455 11.6761C48.2773 11.9716 47.6268 12.1193 46.8938 12.1193C46.0756 12.1193 45.3569 11.9389 44.7376 11.5781C44.1183 11.2145 43.6353 10.6989 43.2887 10.0312C42.945 9.3608 42.7731 8.56534 42.7731 7.64489C42.7731 6.9375 42.8754 6.30682 43.0799 5.75284C43.2873 5.19602 43.5771 4.72443 43.9492 4.33807C44.3214 3.9517 44.7546 3.65767 45.2489 3.45597C45.7433 3.25426 46.2788 3.15341 46.8555 3.15341C47.3498 3.15341 47.81 3.22585 48.2362 3.37074C48.6623 3.51278 49.0401 3.71449 49.3697 3.97585C49.7021 4.23722 49.9734 4.5483 50.1836 4.90909C50.3938 5.26705 50.5288 5.66193 50.5884 6.09375H48.7134ZM53.2901 12H51.3129L54.3256 3.27273H56.7035L59.712 12H57.7347L55.5487 5.26705H55.4805L53.2901 12ZM53.1665 8.5696H57.837V10.0099H53.1665V8.5696ZM60.7624 3.27273H63.038L65.4414 9.13636H65.5437L67.9471 3.27273H70.2227V12H68.4329V6.3196H68.3604L66.1019 11.9574H64.8832L62.6246 6.2983H62.5522V12H60.7624V3.27273ZM71.7429 12V3.27273H77.6236V4.79403H73.5881V6.87358H77.321V8.39489H73.5881V10.4787H77.6406V12H71.7429ZM86.3903 3.27273V12H84.7965L80.9996 6.5071H80.9357V12H79.0906V3.27273H80.7099L84.4769 8.76136H84.5536V3.27273H86.3903ZM87.5824 4.79403V3.27273H94.75V4.79403H92.0781V12H90.2543V4.79403H87.5824ZM103.552 7.63636C103.552 8.58807 103.371 9.39773 103.011 10.0653C102.653 10.733 102.164 11.2429 101.545 11.5952C100.928 11.9446 100.235 12.1193 99.4652 12.1193C98.6896 12.1193 97.9936 11.9432 97.3771 11.5909C96.7607 11.2386 96.2734 10.7287 95.9155 10.0611C95.5575 9.39347 95.3786 8.58523 95.3786 7.63636C95.3786 6.68466 95.5575 5.875 95.9155 5.20739C96.2734 4.53977 96.7607 4.03125 97.3771 3.68182C97.9936 3.32955 98.6896 3.15341 99.4652 3.15341C100.235 3.15341 100.928 3.32955 101.545 3.68182C102.164 4.03125 102.653 4.53977 103.011 5.20739C103.371 5.875 103.552 6.68466 103.552 7.63636ZM101.681 7.63636C101.681 7.01989 101.589 6.5 101.404 6.0767C101.222 5.65341 100.965 5.33239 100.633 5.11364C100.3 4.89489 99.9112 4.78551 99.4652 4.78551C99.0192 4.78551 98.63 4.89489 98.2976 5.11364C97.9652 5.33239 97.7067 5.65341 97.522 6.0767C97.3402 6.5 97.2493 7.01989 97.2493 7.63636C97.2493 8.25284 97.3402 8.77273 97.522 9.19602C97.7067 9.61932 97.9652 9.94034 98.2976 10.1591C98.63 10.3778 99.0192 10.4872 99.4652 10.4872C99.9112 10.4872 100.3 10.3778 100.633 10.1591C100.965 9.94034 101.222 9.61932 101.404 9.19602C101.589 8.77273 101.681 8.25284 101.681 7.63636ZM27.6388 18.2727V27H26.3178V19.5938H26.2667L24.1786 20.9574V19.696L26.3562 18.2727H27.6388ZM33.038 27.1449C32.3647 27.142 31.7894 26.9645 31.3121 26.6122C30.8349 26.2599 30.4698 25.7472 30.217 25.0739C29.9641 24.4006 29.8377 23.5895 29.8377 22.6406C29.8377 21.6946 29.9641 20.8864 30.217 20.2159C30.4727 19.5455 30.8391 19.0341 31.3164 18.6818C31.7965 18.3295 32.3704 18.1534 33.038 18.1534C33.7056 18.1534 34.2781 18.331 34.7553 18.6861C35.2326 19.0384 35.5977 19.5497 35.8505 20.2202C36.1062 20.8878 36.234 21.6946 36.234 22.6406C36.234 23.5923 36.1076 24.4048 35.8548 25.0781C35.6019 25.7486 35.2369 26.2614 34.7596 26.6165C34.2823 26.9688 33.7085 27.1449 33.038 27.1449ZM33.038 26.0071C33.6289 26.0071 34.0906 25.7188 34.4229 25.142C34.7582 24.5653 34.9258 23.7315 34.9258 22.6406C34.9258 21.9162 34.8491 21.304 34.6957 20.804C34.5451 20.3011 34.3278 19.9205 34.0437 19.6619C33.7624 19.4006 33.4272 19.2699 33.038 19.2699C32.4499 19.2699 31.9883 19.5597 31.6531 20.1392C31.3178 20.7187 31.1488 21.5526 31.146 22.6406C31.146 23.3679 31.2212 23.983 31.3718 24.4858C31.5252 24.9858 31.7425 25.3651 32.0238 25.6236C32.305 25.8793 32.6431 26.0071 33.038 26.0071ZM40.7841 27.1449C40.1108 27.142 39.5355 26.9645 39.0582 26.6122C38.581 26.2599 38.2159 25.7472 37.9631 25.0739C37.7102 24.4006 37.5838 23.5895 37.5838 22.6406C37.5838 21.6946 37.7102 20.8864 37.9631 20.2159C38.2188 19.5455 38.5852 19.0341 39.0625 18.6818C39.5426 18.3295 40.1165 18.1534 40.7841 18.1534C41.4517 18.1534 42.0241 18.331 42.5014 18.6861C42.9787 19.0384 43.3438 19.5497 43.5966 20.2202C43.8523 20.8878 43.9801 21.6946 43.9801 22.6406C43.9801 23.5923 43.8537 24.4048 43.6009 25.0781C43.348 25.7486 42.983 26.2614 42.5057 26.6165C42.0284 26.9688 41.4545 27.1449 40.7841 27.1449ZM40.7841 26.0071C41.375 26.0071 41.8366 25.7188 42.169 25.142C42.5043 24.5653 42.6719 23.7315 42.6719 22.6406C42.6719 21.9162 42.5952 21.304 42.4418 20.804C42.2912 20.3011 42.0739 19.9205 41.7898 19.6619C41.5085 19.4006 41.1733 19.2699 40.7841 19.2699C40.196 19.2699 39.7344 19.5597 39.3991 20.1392C39.0639 20.7187 38.8949 21.5526 38.892 22.6406C38.892 23.3679 38.9673 23.983 39.1179 24.4858C39.2713 24.9858 39.4886 25.3651 39.7699 25.6236C40.0511 25.8793 40.3892 26.0071 40.7841 26.0071ZM50.0472 25.3636V24.9034C50.0472 24.5739 50.1154 24.2727 50.2518 24C50.391 23.7244 50.5927 23.5043 50.8569 23.3395C51.1239 23.1719 51.4464 23.0881 51.8242 23.0881C52.2106 23.0881 52.5344 23.1705 52.7958 23.3352C53.0572 23.5 53.2546 23.7202 53.3881 23.9957C53.5245 24.2713 53.5927 24.5739 53.5927 24.9034V25.3636C53.5927 25.6932 53.5245 25.9957 53.3881 26.2713C53.2518 26.544 53.0515 26.7642 52.7873 26.9318C52.5259 27.0966 52.2049 27.179 51.8242 27.179C51.4407 27.179 51.1168 27.0966 50.8526 26.9318C50.5884 26.7642 50.3881 26.544 50.2518 26.2713C50.1154 25.9957 50.0472 25.6932 50.0472 25.3636ZM51.0401 24.9034V25.3636C51.0401 25.608 51.0984 25.8295 51.2148 26.0284C51.3313 26.2273 51.5344 26.3267 51.8242 26.3267C52.1112 26.3267 52.3114 26.2273 52.4251 26.0284C52.5387 25.8295 52.5955 25.608 52.5955 25.3636V24.9034C52.5955 24.6591 52.5401 24.4375 52.4293 24.2386C52.3214 24.0398 52.1197 23.9403 51.8242 23.9403C51.5401 23.9403 51.3384 24.0398 51.2191 24.2386C51.0998 24.4375 51.0401 24.6591 51.0401 24.9034ZM45.658 20.3693V19.9091C45.658 19.5795 45.7262 19.277 45.8626 19.0014C46.0018 18.7259 46.2035 18.5057 46.4677 18.3409C46.7347 18.1761 47.0572 18.0938 47.435 18.0938C47.8214 18.0938 48.1452 18.1761 48.4066 18.3409C48.668 18.5057 48.8654 18.7259 48.9989 19.0014C49.1325 19.277 49.1992 19.5795 49.1992 19.9091V20.3693C49.1992 20.6989 49.131 21.0014 48.9947 21.277C48.8612 21.5497 48.6623 21.7699 48.3981 21.9375C48.1367 22.1023 47.8157 22.1847 47.435 22.1847C47.0487 22.1847 46.7234 22.1023 46.4592 21.9375C46.1978 21.7699 45.9989 21.5497 45.8626 21.277C45.7262 21.0014 45.658 20.6989 45.658 20.3693ZM46.6552 19.9091V20.3693C46.6552 20.6136 46.712 20.8352 46.8256 21.0341C46.9421 21.233 47.1452 21.3324 47.435 21.3324C47.7191 21.3324 47.918 21.233 48.0316 21.0341C48.1481 20.8352 48.2063 20.6136 48.2063 20.3693V19.9091C48.2063 19.6648 48.1509 19.4432 48.0401 19.2443C47.9293 19.0455 47.7276 18.946 47.435 18.946C47.1509 18.946 46.9492 19.0455 46.8299 19.2443C46.7134 19.4432 46.6552 19.6648 46.6552 19.9091ZM46.0629 27L52.0629 18.2727H53.0813L47.0813 27H46.0629ZM63.4844 20.5653C63.4389 20.1619 63.2514 19.8494 62.9219 19.6278C62.5923 19.4034 62.1776 19.2912 61.6776 19.2912C61.3196 19.2912 61.0099 19.348 60.7486 19.4616C60.4872 19.5724 60.2841 19.7259 60.1392 19.9219C59.9972 20.1151 59.9261 20.3352 59.9261 20.5824C59.9261 20.7898 59.9744 20.9687 60.071 21.1193C60.1705 21.2699 60.2997 21.3963 60.4588 21.4986C60.6207 21.598 60.794 21.6818 60.9787 21.75C61.1634 21.8153 61.3409 21.8693 61.5114 21.9119L62.3636 22.1335C62.642 22.2017 62.9276 22.294 63.2202 22.4105C63.5128 22.527 63.7841 22.6804 64.0341 22.8707C64.2841 23.0611 64.4858 23.2969 64.6392 23.5781C64.7955 23.8594 64.8736 24.196 64.8736 24.5881C64.8736 25.0824 64.7457 25.5213 64.4901 25.9048C64.2372 26.2884 63.8693 26.5909 63.3864 26.8125C62.9063 27.0341 62.3253 27.1449 61.6435 27.1449C60.9901 27.1449 60.4247 27.0412 59.9474 26.8338C59.4702 26.6264 59.0966 26.3324 58.8267 25.9517C58.5568 25.5682 58.4077 25.1136 58.3793 24.5881H59.7003C59.7259 24.9034 59.8281 25.1662 60.0071 25.3764C60.1889 25.5838 60.4205 25.7386 60.7017 25.8409C60.9858 25.9403 61.2969 25.9901 61.6349 25.9901C62.0071 25.9901 62.3381 25.9318 62.6278 25.8153C62.9205 25.696 63.1506 25.5312 63.3182 25.321C63.4858 25.108 63.5696 24.8594 63.5696 24.5753C63.5696 24.3168 63.4957 24.1051 63.348 23.9403C63.2031 23.7756 63.0057 23.6392 62.7557 23.5312C62.5085 23.4233 62.2287 23.3281 61.9162 23.2457L60.8849 22.9645C60.1861 22.7741 59.6321 22.4943 59.223 22.125C58.8168 21.7557 58.6136 21.267 58.6136 20.6591C58.6136 20.1562 58.75 19.7173 59.0227 19.3423C59.2955 18.9673 59.6648 18.6761 60.1307 18.4688C60.5966 18.2585 61.1222 18.1534 61.7074 18.1534C62.2983 18.1534 62.8196 18.2571 63.2713 18.4645C63.7259 18.6719 64.0838 18.9574 64.3452 19.321C64.6065 19.6818 64.7429 20.0966 64.7543 20.5653H63.4844ZM66.4471 27V18.2727H71.9187V19.4062H67.7638V22.0653H71.6332V23.1946H67.7638V25.8665H71.9698V27H66.4471ZM79.5838 21.0298C79.5014 20.7713 79.3906 20.5398 79.2514 20.3352C79.1151 20.1278 78.9517 19.9517 78.7614 19.8068C78.571 19.6591 78.3537 19.5469 78.1094 19.4702C77.8679 19.3935 77.6023 19.3551 77.3125 19.3551C76.821 19.3551 76.3778 19.4815 75.983 19.7344C75.5881 19.9872 75.2756 20.358 75.0455 20.8466C74.8182 21.3324 74.7045 21.9276 74.7045 22.6321C74.7045 23.3395 74.8196 23.9375 75.0497 24.4261C75.2798 24.9148 75.5952 25.2855 75.9957 25.5384C76.3963 25.7912 76.8523 25.9176 77.3636 25.9176C77.8381 25.9176 78.2514 25.821 78.6037 25.6278C78.9588 25.4347 79.233 25.1619 79.4261 24.8097C79.6222 24.4545 79.7202 24.0369 79.7202 23.5568L80.0611 23.6207H77.5639V22.5341H80.9943V23.527C80.9943 24.2599 80.8381 24.8963 80.5256 25.4361C80.2159 25.973 79.7869 26.3878 79.2386 26.6804C78.6932 26.973 78.0682 27.1193 77.3636 27.1193C76.5739 27.1193 75.8807 26.9375 75.2841 26.5739C74.6903 26.2102 74.2273 25.6946 73.8949 25.027C73.5625 24.3565 73.3963 23.5611 73.3963 22.6406C73.3963 21.9446 73.4929 21.3196 73.6861 20.7656C73.8793 20.2116 74.1506 19.7415 74.5 19.3551C74.8523 18.9659 75.2656 18.669 75.7401 18.4645C76.2173 18.2571 76.7386 18.1534 77.304 18.1534C77.7756 18.1534 78.2145 18.223 78.6207 18.3622C79.0298 18.5014 79.3935 18.6989 79.7116 18.9545C80.0327 19.2102 80.2983 19.5142 80.5085 19.8665C80.7188 20.2159 80.8608 20.6037 80.9347 21.0298H79.5838ZM88.2781 18.2727H89.5991V24.0128C89.5991 24.6236 89.4556 25.1648 89.1687 25.6364C88.8817 26.1051 88.4783 26.4744 87.9585 26.7443C87.4386 27.0114 86.8292 27.1449 86.1303 27.1449C85.4343 27.1449 84.8263 27.0114 84.3065 26.7443C83.7866 26.4744 83.3832 26.1051 83.0962 25.6364C82.8093 25.1648 82.6658 24.6236 82.6658 24.0128V18.2727H83.9826V23.9062C83.9826 24.3011 84.0692 24.652 84.2425 24.9588C84.4187 25.2656 84.6673 25.5071 84.9883 25.6832C85.3093 25.8565 85.69 25.9432 86.1303 25.9432C86.5735 25.9432 86.9556 25.8565 87.2766 25.6832C87.6005 25.5071 87.8477 25.2656 88.0181 24.9588C88.1914 24.652 88.2781 24.3011 88.2781 23.9062V18.2727ZM91.5135 27V18.2727H94.6243C95.3004 18.2727 95.8615 18.3892 96.3075 18.6222C96.7564 18.8551 97.0916 19.1776 97.3132 19.5895C97.5348 19.9986 97.6456 20.4716 97.6456 21.0085C97.6456 21.5426 97.5334 22.0128 97.3089 22.419C97.0874 22.8224 96.7521 23.1364 96.3033 23.3608C95.8572 23.5852 95.2962 23.6974 94.62 23.6974H92.2635V22.5639H94.5007C94.9268 22.5639 95.2734 22.5028 95.5405 22.3807C95.8104 22.2585 96.0078 22.081 96.1328 21.848C96.2578 21.6151 96.3203 21.3352 96.3203 21.0085C96.3203 20.679 96.2564 20.3935 96.1286 20.152C96.0036 19.9105 95.8061 19.7259 95.5362 19.598C95.2692 19.4673 94.9183 19.402 94.4837 19.402H92.8303V27H91.5135ZM95.8217 23.0625L97.978 27H96.478L94.3643 23.0625H95.8217ZM106.829 22.6364C106.829 23.5682 106.658 24.3693 106.317 25.0398C105.977 25.7074 105.509 26.2216 104.915 26.5824C104.325 26.9403 103.653 27.1193 102.9 27.1193C102.144 27.1193 101.469 26.9403 100.876 26.5824C100.285 26.2216 99.8189 25.706 99.478 25.0355C99.1371 24.3651 98.9666 23.5653 98.9666 22.6364C98.9666 21.7045 99.1371 20.9048 99.478 20.2372C99.8189 19.5668 100.285 19.0526 100.876 18.6946C101.469 18.3338 102.144 18.1534 102.9 18.1534C103.653 18.1534 104.325 18.3338 104.915 18.6946C105.509 19.0526 105.977 19.5668 106.317 20.2372C106.658 20.9048 106.829 21.7045 106.829 22.6364ZM105.525 22.6364C105.525 21.9261 105.41 21.3281 105.18 20.8423C104.952 20.3537 104.64 19.9844 104.242 19.7344C103.847 19.4815 103.4 19.3551 102.9 19.3551C102.397 19.3551 101.948 19.4815 101.553 19.7344C101.158 19.9844 100.846 20.3537 100.616 20.8423C100.388 21.3281 100.275 21.9261 100.275 22.6364C100.275 23.3466 100.388 23.946 100.616 24.4347C100.846 24.9205 101.158 25.2898 101.553 25.5426C101.948 25.7926 102.397 25.9176 102.9 25.9176C103.4 25.9176 103.847 25.7926 104.242 25.5426C104.64 25.2898 104.952 24.9205 105.18 24.4347C105.41 23.946 105.525 23.3466 105.525 22.6364Z" fill="#008000"/>
</svg>