<svg width="90" height="60" viewBox="0 0 90 60" fill="none" xmlns="http://www.w3.org/2000/svg">
<rect width="89.268" height="59.512" rx="8" fill="#4AB7A8"/>
<path d="M32.4635 40.8951C33.2933 40.8981 34.1155 40.736 34.8821 40.4187C35.6487 40.1012 36.3449 39.6346 36.9297 39.0459L43.3769 32.599C43.6057 32.3809 43.9094 32.259 44.2258 32.259C44.5418 32.259 44.8459 32.3809 45.0747 32.599L51.5468 39.0726C52.1328 39.6604 52.8293 40.1263 53.5965 40.4433C54.3634 40.7602 55.1859 40.9221 56.0158 40.919H57.2873L49.1171 49.0852C48.5111 49.6924 47.7912 50.1743 46.9988 50.5032C46.2061 50.8318 45.3566 51.0014 44.4988 51.0014C43.6407 51.0014 42.7912 50.8318 41.9985 50.5032C41.2061 50.1743 40.4862 49.6924 39.8803 49.0852L31.6769 40.8951H32.4635ZM56.0158 18.0815C55.1862 18.079 54.3643 18.241 53.5977 18.5582C52.8309 18.8754 52.1349 19.3414 51.5495 19.9294L45.0867 26.4058C44.8615 26.6303 44.5563 26.7565 44.2384 26.7565C43.9202 26.7565 43.6152 26.6303 43.3901 26.4058L36.9432 19.9573C36.3581 19.3685 35.6622 18.9019 34.8956 18.5844C34.1287 18.267 33.3065 18.105 32.4767 18.1081H31.6769L39.8803 9.91275C41.1054 8.68802 42.7666 8 44.4988 8C46.231 8 47.8923 8.68802 49.1171 9.91275L57.2873 18.0801L56.0158 18.0815Z" fill="white"/>
<path d="M24.9137 24.8818L29.7921 20.0025H32.4635C33.6352 20.0038 34.7577 20.4675 35.5894 21.2909L42.0363 27.7381C42.3238 28.0271 42.6653 28.2562 43.0415 28.4126C43.4175 28.5692 43.821 28.6497 44.2283 28.6497C44.6358 28.6497 45.0391 28.5692 45.4153 28.4126C45.7915 28.2562 46.1331 28.0271 46.4202 27.7381L52.8926 21.2657C53.7243 20.4414 54.8475 19.9782 56.0185 19.9772H59.1856L64.0849 24.8766C65.3097 26.1014 65.9977 27.7627 65.9977 29.4949C65.9977 31.2271 65.3097 32.8883 64.0849 34.1134L59.1856 39.0127H56.0158C54.8456 39.0127 53.7215 38.5477 52.8898 37.7243L46.419 31.2492C45.8287 30.6853 45.0434 30.3708 44.227 30.3708C43.4107 30.3708 42.6257 30.6853 42.0351 31.2492L35.5882 37.6964C34.7565 38.5198 33.6339 38.9848 32.4623 38.9848H29.7921L24.9137 34.1187C24.3071 33.5124 23.8259 32.7925 23.4975 31.9998C23.1689 31.2074 23 30.3582 23 29.5004C23 28.6426 23.1689 27.7931 23.4975 27.0007C23.8259 26.2083 24.3071 25.4884 24.9137 24.8818Z" fill="white"/>
</svg>
